<?xml version="1.0" encoding="utf-8"?>
<!-- Generator: Adobe Illustrator 28.1.0, SVG Export Plug-In . SVG Version: 6.00 Build 0)  -->
<svg version="1.1" id="Layer_1" xmlns="http://www.w3.org/2000/svg" xmlns:xlink="http://www.w3.org/1999/xlink" x="0px" y="0px"
	 viewBox="0 0 542 100" style="enable-background:new 0 0 542 100;" xml:space="preserve">
<style type="text/css">
	.st0{fill-rule:evenodd;clip-rule:evenodd;fill:#2E7EA3;}
	.st1{fill-rule:evenodd;clip-rule:evenodd;fill:#235F7B;}
	.st2{fill:#2E7EA3;}
	.st3{fill:#235F7B;}
	.st4{fill:#333333;}
</style>
<g>
	<g>
		<g>
			<g>
				<g>
					<path class="st0" d="M68,71.1c-3.9,2.8-8.6,4.6-13.8,4.9c-13.7,0.8-25.7-9.3-27.3-22.9c-1.7-14.6,8.9-27.7,23.4-29.1
						c4.4-0.4,8.7,0.3,12.5,1.9c1.6,0.7,3.1-0.3,4.4-1.4c3.7-3.3,5.3-5.6,8.1-9c1.6-2,1.7-4.7-0.6-6c-6.9-3.8-14.8-5.8-23.1-5.6
						C24,4.8,3.1,29.8,7.3,57c3.7,23.9,25.4,41.1,49.8,38.8c10.1-1,19.2-5.1,26.2-11.4c1.9-1.7,1.2-4.3-0.8-5.9
						c-5.1-4.2-6.6-4.8-9.9-6.9C71.1,70.6,69.4,70.1,68,71.1z"/>
					<circle class="st1" cx="53.1" cy="50" r="15.8"/>
					<path class="st1" d="M82.5,78.4c-5.1-4.2-6.6-4.8-9.9-6.9c-1.5-0.9-3.2-1.4-4.6-0.3c-3.9,2.8-8.6,4.6-13.8,4.9
						c-0.4,0-0.8,0-1.2,0c-0.1,0-0.1,0-0.2,0c-0.4,0-0.7,0-1.1,0c-0.1,0-0.2,0-0.3,0c-0.3,0-0.7,0-1-0.1c-0.1,0-0.2,0-0.3,0
						c-0.3,0-0.5-0.1-0.8-0.1c-0.2,0-0.3,0-0.5-0.1c-0.2,0-0.5-0.1-0.7-0.1c-0.2,0-0.3-0.1-0.5-0.1c-0.3,0-0.5-0.1-0.8-0.2
						c-0.2,0-0.4-0.1-0.6-0.1c-0.1,0-0.2-0.1-0.3-0.1c-0.4-0.1-0.7-0.2-1.1-0.3c-0.1,0-0.1,0-0.2-0.1c-3.9-1.2-7.4-3.4-10.3-6.2
						c-1.1-0.4-2.4-0.1-3.6,0.4c-3.6,1.8-5.1,2.2-10.7,5.8c-2.2,1.4-3.2,3.9-1.5,5.9c1,1.2,2.1,2.3,3.2,3.3
						C31.2,92.5,43.7,97,57,95.7c4.9-0.5,9.6-1.7,13.9-3.6c2.3-1,4.4-2.1,6.5-3.4c0,0,0,0,0.1,0c0.5-0.3,0.9-0.6,1.4-0.9
						c0,0,0.1-0.1,0.1-0.1c0.4-0.3,0.8-0.6,1.3-0.9c0.1-0.1,0.2-0.1,0.2-0.2c0.4-0.3,0.8-0.6,1.2-0.9c0.1-0.1,0.2-0.1,0.3-0.2
						c0.5-0.4,0.9-0.8,1.4-1.2C85.2,82.6,84.5,80,82.5,78.4z"/>
				</g>
			</g>
		</g>
		<g>
			<g>
				<g>
					<path class="st2" d="M138.1,47.3l23.2-34.2c0.7-1,2.6-3.9,1.2-6.6c-0.9-1.7-2.8-2.6-5.7-2.6h-8.1c-3.7,0-5.7,1.8-6.6,3.2
						l-15.7,23.1L110.8,7.2c-1-1.4-3-3.2-6.6-3.2h-8c-2.9,0-4.8,0.9-5.7,2.6c-1.4,2.7,0.6,5.6,1.2,6.5l23.2,34.1L88.6,86
						c-0.7,1-2.6,3.9-1.2,6.6c0.9,1.7,2.8,2.6,5.7,2.6h8c3.6,0,5.6-1.7,6.6-3.2l18.8-27.7L145.3,92c1,1.5,3,3.2,6.6,3.2h8
						c2.9,0,4.8-0.9,5.7-2.6c1.4-2.7-0.6-5.6-1.2-6.5L138.1,47.3z"/>
				</g>
			</g>
			<path class="st3" d="M135.3,49.9l-6.5,11.1L107.7,92c-1,1.5-3,3.2-6.6,3.2h-8c-2.9,0-4.8-0.9-5.7-2.6c-1.4-2.7,0.6-5.6,1.2-6.6
				l26.3-38.8L91.7,13.2c-0.6-1-2.6-3.9-1.2-6.5C91.4,4.9,93.3,4,96.2,4h8c3.6,0,5.6,1.7,6.6,3.2l18,26.5l6.6,11.4
				C136.3,46.5,136.3,48.4,135.3,49.9z"/>
		</g>
	</g>
	<g>
		<g>
			<g>
				<path class="st2" d="M379.5,49.5l8.6-12.7c0.2-0.4,1-1.4,0.5-2.4c-0.3-0.6-1.1-1-2.1-1h-3c-1.4,0-2.1,0.7-2.5,1.2l-5.8,8.6
					l-5.8-8.6c-0.4-0.5-1.1-1.2-2.5-1.2h-3c-1.1,0-1.8,0.3-2.1,1c-0.5,1,0.2,2.1,0.5,2.4l8.6,12.7l-9.8,14.4c-0.2,0.4-1,1.4-0.5,2.4
					c0.3,0.6,1.1,1,2.1,1h3c1.4,0,2.1-0.6,2.5-1.2l7-10.3l7,10.3c0.4,0.5,1.1,1.2,2.5,1.2h3c1.1,0,1.8-0.3,2.1-1
					c0.5-1-0.2-2.1-0.5-2.4L379.5,49.5z"/>
				<path class="st2" d="M408.8,32.9c-2.5,0-4.6,0.4-6.2,1.3c-0.8,0.4-1.6,1-2.3,1.6c0-1.7-1.1-2.3-2.1-2.3h-2.6
					c-1.5,0-2.4,0.9-2.4,2.4v41.3c0,1.5,0.9,2.4,2.3,2.4h2.4c1.4,0,2.3-0.9,2.3-2.4V65c0.7,0.6,1.5,1.1,2.3,1.6
					c1.6,0.8,3.6,1.3,6.2,1.3c4.5,0,7.9-1.8,10.2-5.4c2.2-3.5,3.4-7.5,3.4-12s-1.1-8.6-3.4-12C416.7,34.7,413.3,32.9,408.8,32.9z
					 M414.7,50.4c0,3.5-0.6,6.4-1.8,8.5c-1.1,2-3,2.9-5.8,2.9c-2,0-3.5-0.6-4.8-1.9c-1.3-1.3-1.9-3.3-1.9-6.1v-7
					c0-2.7,0.6-4.8,1.9-6.1c1.3-1.3,2.9-1.9,4.8-1.9c2.8,0,4.7,1,5.8,2.9C414.1,44,414.7,46.9,414.7,50.4z"/>
				<path class="st2" d="M445.2,33.3c-0.7-0.3-1.7-0.4-3.2-0.4c-2.2,0-4.1,0.5-5.6,1.6c-0.6,0.5-1.3,1-1.8,1.7v-0.3
					c0-1.5-0.9-2.4-2.4-2.4h-2.6c-1.5,0-2.4,0.9-2.4,2.4V65c0,1.5,0.9,2.4,2.4,2.4h2.6c1.5,0,2.4-0.9,2.4-2.4V49.8
					c0-3.4,0.7-6.2,2.1-8.1c1.4-1.9,3-2.8,5.1-2.8c0.6,0,1.2,0.1,1.8,0.2c1,0.2,1.7-0.3,2-1.2l0.7-2.5
					C446.5,34.5,446.1,33.7,445.2,33.3z"/>
				<path class="st2" d="M463,32.9c-5,0-8.9,1.6-11.6,4.8c-2.7,3.2-4,7.4-4,12.7c0,5.2,1.3,9.5,3.8,12.6c2.6,3.2,6.6,4.8,12,4.8
					c4.1,0,7.1-0.7,9.1-2.1c2.6-1.8,3.3-2.6,3.6-3.1c1.1-1.7,0.1-2.7-0.2-3l-1.8-1.5c-0.6-0.5-1.2-0.6-1.6-0.5
					c-0.7,0.1-1.3,0.5-1.8,1.2c-0.5,0.7-1.4,1.4-2.5,2.1c-1.1,0.7-2.7,1-4.9,1c-2,0-3.7-0.7-5.3-2c-1.4-1.2-2.3-3.3-2.7-6.4h20.1
					c1.4,0,2.3-0.9,2.3-2.4c0-6.2-1.4-10.8-4.1-13.7C470.7,34.4,467.2,32.9,463,32.9z M455.1,47.4c0.4-3.1,1.2-5.3,2.5-6.5
					c1.5-1.4,3.2-2.1,5.3-2.1c2.3,0,4,0.9,5.2,2.7c1.1,1.7,1.7,3.7,2,5.9H455.1z"/>
				<path class="st2" d="M504.2,51c-0.9-0.9-2.1-1.8-3.7-2.5c-1.2-0.5-2.5-1-4-1.4c-1.4-0.4-3-0.8-4.7-1.2c-1-0.2-1.7-0.6-2.2-0.9
					c-0.5-0.3-0.8-0.7-0.9-1.1c-0.2-0.4-0.3-0.9-0.3-1.5c0-0.7,0.2-1.3,0.6-1.8c0.4-0.5,1-0.9,1.7-1.1c0.8-0.3,1.8-0.4,3-0.4
					c0.9,0,2,0.2,3.3,0.6c1.3,0.4,2.3,0.9,2.9,1.4c2,1.4,3.1,0.2,3.4-0.2l1.4-1.8c0.5-0.7,0.5-1.2,0.5-1.6c-0.1-0.6-0.4-1.1-1-1.5
					c-1.2-0.8-2.6-1.6-4.2-2.2c-1.6-0.6-3.8-0.9-6.4-0.9c-1.8,0-3.7,0.3-5.5,0.8c-2,0.6-3.7,1.7-5,3.2c-1.4,1.6-2,3.5-2,5.7
					c0,2.1,0.4,3.8,1.3,5.1c0.8,1.2,1.8,2.2,2.9,2.9c1.1,0.7,2.2,1.2,3.4,1.6c1.7,0.5,3,0.9,4.1,1.2c1,0.2,2,0.6,3,0.9
					c0.6,0.2,1.1,0.5,1.7,0.8c0.5,0.3,0.8,0.7,1.1,1.1c0.2,0.5,0.4,1,0.4,1.6c0,1-0.2,1.8-0.7,2.3c-0.5,0.6-1.1,1-1.8,1.2
					c-0.8,0.2-1.7,0.4-2.7,0.4c-1.7,0-3.3-0.3-4.7-0.8c-1.4-0.5-2.6-1.2-3.7-2c-0.8-0.6-1.4-0.8-2.1-0.7c-0.4,0.1-0.9,0.2-1.3,0.8
					l-1.4,1.9c-0.3,0.4-1,1.6,0.5,3c0.7,0.7,2.2,1.5,4.5,2.4c2.3,0.9,5,1.4,8.1,1.4c2.3,0,4.3-0.3,6-0.8c1.8-0.6,3.4-1.7,4.8-3.3
					c1.4-1.7,2.2-3.8,2.2-6.2c0-1.3-0.2-2.5-0.5-3.5C505.8,53,505.1,52,504.2,51z"/>
				<path class="st2" d="M534.8,54.1c-0.4-1.1-1-2.1-1.9-3.1c-0.9-0.9-2.1-1.8-3.7-2.5c-1.2-0.5-2.5-1-4-1.4c-1.4-0.4-3-0.8-4.7-1.2
					c-1-0.2-1.7-0.6-2.2-0.9c-0.5-0.3-0.8-0.7-0.9-1.1c-0.2-0.4-0.3-0.9-0.3-1.5c0-0.7,0.2-1.3,0.6-1.8c0.4-0.5,1-0.9,1.7-1.1
					c0.8-0.3,1.8-0.4,3-0.4c0.9,0,2,0.2,3.3,0.6c1.3,0.4,2.3,0.9,2.9,1.4c2,1.4,3.1,0.2,3.4-0.2l1.4-1.8c0.5-0.7,0.5-1.2,0.5-1.6
					c-0.1-0.6-0.4-1.1-1-1.5c-1.2-0.8-2.6-1.6-4.2-2.2c-1.6-0.6-3.8-0.9-6.4-0.9c-1.8,0-3.7,0.3-5.5,0.8c-2,0.6-3.7,1.7-5,3.2
					c-1.4,1.6-2,3.5-2,5.7c0,2.1,0.4,3.8,1.3,5.1c0.8,1.2,1.8,2.2,2.9,2.9c1.1,0.7,2.2,1.2,3.4,1.6c1.7,0.5,3,0.9,4.1,1.2
					c1,0.2,2,0.6,3,0.9c0.6,0.2,1.1,0.5,1.7,0.8c0.5,0.3,0.8,0.7,1.1,1.1c0.2,0.5,0.4,1,0.4,1.6c0,1-0.2,1.8-0.7,2.3
					c-0.5,0.6-1.1,1-1.8,1.2c-0.8,0.2-1.7,0.4-2.7,0.4c-1.7,0-3.3-0.3-4.7-0.8c-1.4-0.5-2.6-1.2-3.7-2c-0.8-0.6-1.4-0.8-2.1-0.7
					c-0.4,0.1-0.9,0.2-1.3,0.8l-1.4,1.9c-0.3,0.4-1,1.6,0.5,3c0.7,0.7,2.2,1.5,4.5,2.4c2.3,0.9,5,1.4,8.1,1.4c2.3,0,4.3-0.3,6-0.8
					c1.8-0.6,3.4-1.7,4.8-3.3c1.4-1.7,2.2-3.8,2.2-6.2C535.3,56.3,535.1,55.2,534.8,54.1z"/>
			</g>
			<path class="st4" d="M196.1,61.1c-0.5,0.9-1.7,2.2-3.6,3.8c-1.9,1.6-4.8,2.5-8.8,2.5c-5,0-8.8-1.6-11.2-4.9
				c-2.4-3.2-3.6-7.3-3.6-12.1c0-4.8,1.2-8.9,3.6-12.1c2.4-3.2,6.2-4.9,11.2-4.9c3.4,0,6,0.6,7.8,1.8c1.8,1.2,3.1,2.5,3.9,3.7
				c0.6,0.9,0.4,1.8-0.4,2.3l-1.9,1.2c-0.4,0.3-0.8,0.3-1.1,0.3c-0.5-0.1-1-0.5-1.4-1.2c-0.5-0.9-1.3-1.6-2.3-2.2
				c-1-0.6-2.5-0.9-4.5-0.9c-2.6,0-4.6,0.9-6,2.9c-1.4,1.9-2.2,5-2.2,9.1s0.7,7.2,2.2,9.1c1.4,1.9,3.4,2.9,6,2.9
				c2.1,0,3.8-0.4,4.9-1.2c1.1-0.8,2-1.7,2.5-2.6c0.4-0.7,0.8-1.1,1.3-1.2c0.4-0.1,0.8,0,1.2,0.2l2,1.2
				C196.1,59,196.9,59.7,196.1,61.1z M226.9,38.3c2.6,3.2,3.9,7.3,3.9,12.1c0,4.9-1.3,8.9-3.9,12.1c-2.6,3.2-6.5,4.9-11.5,4.9
				s-8.9-1.6-11.5-4.9c-2.6-3.2-3.9-7.3-3.9-12.1c0-4.9,1.3-8.9,3.9-12.1c2.6-3.2,6.5-4.9,11.5-4.9
				C220.4,33.4,224.3,35.1,226.9,38.3z M221.7,41.3c-1.6-1.9-3.6-2.9-6.3-2.9c-2.6,0-4.7,0.9-6.3,2.9c-1.6,1.9-2.4,5-2.4,9.1
				s0.8,7.2,2.4,9.1c1.6,1.9,3.6,2.9,6.3,2.9c2.6,0,4.7-0.9,6.3-2.9c1.6-1.9,2.4-5,2.4-9.1S223.3,43.2,221.7,41.3z M241.6,20.5h-1.1
				c-0.5,0-1.3,0.5-1.9,1.5l-1.6,2.6c-0.2,0.4-0.4,0.9-0.4,1.4v39c0,1.2,0.7,1.9,1.9,1.9h2.6c1.2,0,1.9-0.7,1.9-1.9V22.1
				C243,21.1,242.5,20.5,241.6,20.5z M287.9,37.7c2.6,2.8,4,7.3,4,13.4c0,1.2-0.6,1.9-1.8,1.9h-20.7c0.4,3.5,1.4,5.9,2.9,7.3
				c1.7,1.4,3.6,2.2,5.7,2.2c2.3,0,4-0.4,5.2-1.1c1.2-0.8,2.1-1.5,2.6-2.2c0.5-0.6,0.9-0.9,1.4-1c0.4,0,0.8,0.1,1.2,0.4l1.8,1.5
				c0.4,0.3,0.9,1.1,0.1,2.3c-0.4,0.6-1.5,1.6-3.4,2.9c-1.9,1.3-4.9,2-8.8,2c-5.2,0-9.1-1.6-11.6-4.7c-2.5-3.1-3.7-7.2-3.7-12.3
				c0-5.1,1.3-9.3,3.9-12.3c2.6-3.1,6.4-4.6,11.2-4.6C281.9,33.4,285.3,34.9,287.9,37.7z M285.5,48c-0.1-2.5-0.8-4.7-2.1-6.7
				c-1.3-2-3.1-3-5.6-3c-2.2,0-4.1,0.7-5.6,2.2c-1.5,1.4-2.4,3.9-2.7,7.4H285.5z M324.3,35.8v30.7c0,4-0.9,7.2-2.8,9.4
				c-1.9,2.3-5.6,3.5-11,3.5c-3.6,0-6.3-0.4-8.2-1.2c-1.8-0.8-3.1-1.7-3.9-2.7c-1-1.2-0.4-2.1-0.1-2.4l1.7-1.6
				c0.5-0.5,1.3-0.8,2.6,0.4c1,0.9,2,1.6,3,2c0.9,0.4,2.6,0.6,4.9,0.6c2.6,0,4.5-0.5,5.7-1.6c1.1-1.1,1.7-3.4,1.7-6.9v-1.8
				c0-0.1,0-0.3,0-0.4c-0.9,0.9-1.9,1.7-2.9,2.3c-1.5,0.9-3.5,1.3-5.9,1.3c-4.2,0-7.5-1.8-9.7-5.2c-2.1-3.4-3.2-7.3-3.2-11.8
				s1.1-8.4,3.2-11.8c2.2-3.5,5.4-5.2,9.7-5.2c2.4,0,4.4,0.4,5.8,1.2c1.1,0.6,2.1,1.4,3,2.3v-1.1c0-1.2,0.6-1.9,1.7-1.9h2.7
				C323.5,33.9,324.3,34.6,324.3,35.8z M315.9,40.5c-1.4-1.4-3-2.1-5.1-2.1c-2.9,0-4.9,1-6.1,3.2c-1.2,2.2-1.9,5.2-1.9,8.8
				c0,3.6,0.6,6.6,1.9,8.8c1.2,2.1,3.2,3.2,6.1,3.2c2.1,0,3.7-0.7,5.1-2.1c1.3-1.4,2-3.5,2-6.4v-7C317.9,44,317.2,41.9,315.9,40.5z
				 M357.4,52.9h-20.7c0.4,3.5,1.4,5.9,2.9,7.3c1.7,1.4,3.6,2.2,5.7,2.2c2.3,0,4-0.4,5.2-1.1c1.2-0.8,2.1-1.5,2.6-2.2
				c0.5-0.6,0.9-0.9,1.4-1c0.4,0,0.8,0.1,1.2,0.4l1.8,1.5c0.4,0.3,0.9,1.1,0.1,2.3c-0.4,0.6-1.5,1.6-3.4,2.9c-1.9,1.3-4.9,2-8.8,2
				c-5.2,0-9.1-1.6-11.6-4.7c-2.5-3.1-3.7-7.2-3.7-12.3c0-5.1,1.3-9.3,3.9-12.3c2.6-3.1,6.4-4.6,11.2-4.6c4,0,7.4,1.4,10,4.2
				c2.6,2.8,4,7.3,4,13.4C359.2,52.3,358.5,52.9,357.4,52.9z M350.7,41.3c-1.3-2-3.1-3-5.6-3c-2.2,0-4.1,0.7-5.6,2.2
				c-1.5,1.4-2.4,3.9-2.7,7.4h16C352.6,45.5,351.9,43.2,350.7,41.3z M255.7,20.5h-1.1c-0.5,0-1.3,0.5-1.9,1.5l-1.6,2.6
				c-0.2,0.4-0.4,0.9-0.4,1.4v39c0,1.2,0.7,1.9,1.9,1.9h2.6c1.2,0,1.9-0.7,1.9-1.9V22.1C257.1,21.1,256.6,20.5,255.7,20.5z"/>
		</g>
	</g>
</g>
</svg>
